<?xml version="1.0" encoding="UTF-8"?>
<svg id="Ebene_1" data-name="Ebene 1" xmlns="http://www.w3.org/2000/svg" viewBox="0 0 183 316">
  <defs>
    <style>
      .cls-1 {
        fill: #f9b338;
      }

      .cls-2 {
        fill: #dadada;
      }

      .cls-3 {
        fill: #159989;
      }

      .cls-4 {
        fill: none;
        stroke: #159989;
        stroke-miterlimit: 10;
      }
    </style>
  </defs>
  <g>
    <path class="cls-1" d="m28.89,254.58c-.31.54-.68,1.16-1.11,1.87-.43.71-.92,1.43-1.5,2.17-.57.74-1.2,1.46-1.88,2.15-.68.7-1.43,1.31-2.24,1.85-.81.54-1.67.97-2.59,1.29-.92.32-1.89.48-2.93.45-1.23-.05-2.26-.19-3.09-.42-.83-.24-1.51-.54-2.03-.91-.53-.37-.92-.77-1.19-1.21-.27-.44-.46-.87-.57-1.29-.11-.43-.16-.82-.15-1.19.01-.37.03-.67.05-.89.09-.65.43-1.35,1.01-2.09s1.3-1.42,2.15-2.05c-.74-.54-1.35-1.21-1.83-2s-.83-1.66-1.04-2.58-.28-1.89-.2-2.91c.08-1.02.31-2.03.69-3.02.45-1.12,1.03-2.24,1.75-3.37.72-1.12,1.57-2.13,2.57-3.01,1-.89,2.13-1.61,3.4-2.17,1.27-.56,2.66-.84,4.19-.84.87,0,1.6.14,2.19.4.58.27,1.06.62,1.43,1.04.37.43.65.91.84,1.45.19.54.33,1.08.4,1.62.08.54.11,1.06.1,1.57-.01.5-.03.93-.05,1.26-.05.74-.19,1.6-.44,2.56-.25.97-.61,1.89-1.09,2.78-.48.89-1.08,1.64-1.8,2.26-.72.62-1.56.94-2.52.96-.87.02-1.54-.16-2-.55-.46-.39-.78-.9-.96-1.53-.18-.63-.25-1.32-.2-2.07.04-.75.15-1.49.3-2.2.22-1.05.57-2.02,1.03-2.89.46-.87.95-1.74,1.46-2.59.22-.27.46-.44.71-.52.25-.08.46-.08.66-.02s.33.19.42.37.1.39.03.64c-.25.56-.48,1.08-.71,1.56s-.43.95-.61,1.39c-.18.45-.34.9-.49,1.36-.15.46-.26.94-.35,1.43-.13.74-.2,1.34-.2,1.82s.04.84.13,1.11c.09.27.21.45.35.55.15.1.31.15.49.15.27,0,.58-.17.94-.5.36-.34.71-.8,1.04-1.38.34-.58.63-1.27.88-2.05.25-.78.4-1.62.47-2.52.02-.34.06-.83.1-1.48.04-.65,0-1.3-.12-1.95-.12-.65-.38-1.23-.77-1.73s-1.03-.77-1.9-.79c-.69-.02-1.38.2-2.07.66-.68.46-1.33,1.05-1.95,1.78-.62.73-1.18,1.54-1.68,2.44-.5.9-.94,1.77-1.3,2.62-.45,1.08-.76,2.09-.92,3.04-.17.95-.23,1.83-.18,2.64s.18,1.53.4,2.17c.22.64.5,1.19.84,1.66.45-.18.89-.32,1.31-.44.43-.11.84-.17,1.24-.17.87,0,1.54.09,1.98.27s.73.4.84.66c.11.26.08.53-.08.82-.17.29-.43.57-.77.82-.35.26-.76.47-1.24.62-.48.16-.98.22-1.5.2-.38,0-.75-.03-1.09-.08-.35-.06-.68-.14-.99-.25-.45.56-.82,1.17-1.11,1.83-.29.66-.47,1.32-.54,1.97-.04.9.17,1.67.66,2.32.48.65,1.38,1,2.71,1.04,1.21.04,2.36-.24,3.45-.86,1.09-.62,2.15-1.46,3.18-2.52,1.03-1.06,2.03-2.31,3.01-3.75.98-1.43,1.93-2.96,2.88-4.57.09-.16.23-.27.42-.34s.38-.1.57-.08.34.06.44.15c.1.09.11.22.02.4-.18.43-.4.89-.67,1.39-.27.5-.62,1.24-1.04,2.2Zm-11.13-1.11c-.43.09-.87.28-1.34.57.27.16.57.27.91.34.27.07.54.04.82-.08.28-.12.48-.26.59-.42s.11-.29-.02-.39-.44-.11-.96-.02Z"/>
    <path class="cls-1" d="m35.44,250.98c-.13.56-.33,1.19-.57,1.9s-.5,1.42-.76,2.15c-.26.73-.5,1.44-.72,2.12s-.38,1.29-.47,1.82c-.09.53-.08.95.02,1.28.1.33.34.49.72.49.25,0,.55-.18.91-.56.36-.37.75-.85,1.16-1.45.41-.59.84-1.26,1.28-2s.86-1.47,1.28-2.2c.42-.73.8-1.42,1.16-2.07.36-.65.66-1.19.91-1.61.09-.16.23-.27.44-.34s.39-.1.57-.08.32.06.42.15c.1.09.11.22.02.4-.16.34-.36.77-.61,1.29-.25.53-.52,1.1-.82,1.71-.3.62-.63,1.26-.99,1.93-.36.67-.74,1.33-1.14,1.98-.38.63-.77,1.24-1.18,1.85-.4.61-.84,1.14-1.3,1.61-.46.47-.95.85-1.48,1.14-.53.29-1.09.44-1.7.44-.92,0-1.58-.23-1.97-.69-.39-.46-.62-1.06-.67-1.8s.02-1.57.22-2.5c.2-.93.44-1.85.72-2.76.28-.91.55-1.76.81-2.56.26-.8.42-1.44.49-1.93,0-.16-.04-.31-.12-.45-.08-.15-.18-.26-.3-.35s-.25-.13-.37-.12c-.12.01-.23.11-.32.29l-.03.07c-.05.11-.14.3-.29.57-.15.27-.26.45-.35.54-.16.25-.34.41-.56.49-.21.08-.4.11-.57.08-.17-.02-.29-.1-.37-.22-.08-.12-.06-.27.05-.45l.24-.47c.16-.4.26-.83.32-1.28.06-.45.08-.89.07-1.31-.01-.43-.05-.83-.1-1.21-.06-.38-.13-.71-.22-.97-.07-.13.04-.26.32-.39.28-.12.6-.22.96-.29.36-.07.68-.09.96-.07.28.02.38.13.29.34-.13.31-.13.63,0,.94.13.31.36.61.67.87.2.22.52.5.94.84s.76.64,1.01.91c.38.36.68.7.89,1.01s.26.62.15.91Z"/>
    <path class="cls-1" d="m56.06,251.99c-.25.47-.58.95-.99,1.45s-.9.94-1.45,1.34c-.55.4-1.16.75-1.83,1.03-.67.28-1.4.43-2.19.45.27.96.48,1.94.62,2.93.15.99.26,1.92.34,2.81s.13,1.69.15,2.4c.02.72.03,1.29.03,1.72,0,.4-.02,1.02-.05,1.85s-.11,1.75-.23,2.76c-.12,1.01-.3,2.05-.54,3.11-.23,1.06-.56,2.03-.98,2.89-.42.86-.93,1.56-1.55,2.1-.62.54-1.36.78-2.24.74-.54-.02-.99-.19-1.36-.5-.37-.31-.67-.76-.91-1.33-.24-.57-.42-1.26-.54-2.05-.12-.8-.21-1.67-.25-2.61-.07-1.26-.07-2.61-.02-4.07s.15-2.96.27-4.51c.12-1.55.28-3.13.47-4.74.19-1.61.4-3.22.62-4.81-.99-.43-1.82-.94-2.51-1.55-.68-.61-1.05-1.28-1.09-2.02-.04-.69.18-1.28.67-1.75.49-.47,1.21-.71,2.15-.71.29,0,.57.02.82.07.26.05.51.1.76.17.22-1.48.44-2.89.66-4.22.21-1.33.39-2.53.54-3.6s.26-1.98.35-2.74c.09-.76.13-1.32.13-1.68.02-.13.19-.23.5-.3.31-.07.66-.1,1.03-.08.37.01.71.06,1.03.15.31.09.5.2.57.34-.16,2.47-.37,4.9-.64,7.3-.27,2.4-.56,4.82-.88,7.26.36.49.67,1.02.94,1.58.27.56.51,1.16.74,1.78.56,0,1.06-.05,1.51-.13.52-.09.97-.25,1.36-.49s.74-.49,1.04-.77c.3-.28.57-.58.81-.91.23-.32.44-.63.62-.92l.54-.87c.09-.16.22-.27.4-.34.18-.07.36-.1.54-.08.18.01.32.06.44.15.11.09.13.22.07.4l-.5,1.01Zm-14.26-.07c.18.27.43.53.74.79.31.26.68.51,1.11.76l.4-2.96-.2-.13c-.4-.22-.77-.32-1.11-.29s-.61.14-.81.32c-.2.18-.32.41-.35.69-.03.28.04.56.22.82Zm6.83,14.19c.02-.63.05-1.34.08-2.14.03-.8.04-1.63.02-2.49-.02-.86-.08-1.75-.19-2.66-.1-.91-.26-1.79-.49-2.64-.18-.02-.36-.04-.54-.07-.18-.02-.36-.06-.54-.1-.27,2.17-.53,4.34-.77,6.51-.25,2.16-.45,4.36-.61,6.57-.07.16-.13.47-.18.94-.06.47-.1,1-.12,1.6-.02.59-.03,1.22-.02,1.88.01.66.06,1.27.13,1.82.08.55.19.99.34,1.33.15.34.33.49.56.47.25-.02.48-.23.69-.64.21-.4.4-.92.56-1.55.16-.63.3-1.33.42-2.12.12-.79.23-1.58.32-2.39.09-.81.16-1.59.22-2.34.06-.75.1-1.42.12-2Zm-1.38-12.14l-.1.77.47.07-.37-.84Z"/>
    <path class="cls-1" d="m56.29,247.18c.04-.16.25-.26.61-.32s.74-.07,1.14-.05c.4.02.77.09,1.09.2.32.11.48.25.45.4-.09.16-.24.58-.44,1.26-.2.68-.42,1.5-.64,2.45-.22.95-.44,1.97-.66,3.04-.21,1.08-.39,2.08-.52,3.01s-.21,1.72-.22,2.37c-.01.65.08,1.02.29,1.11.07.05.23-.12.49-.49.26-.37.57-.86.94-1.46.37-.61.78-1.28,1.23-2.03.45-.75.89-1.5,1.33-2.24.44-.74.84-1.43,1.21-2.07.37-.64.68-1.15.92-1.53.09-.16.23-.27.42-.34s.38-.1.56-.08c.18.01.32.06.42.15s.12.22.05.4c-.81,1.66-1.68,3.32-2.62,4.99-.94,1.67-1.82,3.21-2.62,4.62-.05.11-.16.3-.35.57-.19.27-.42.54-.69.81-.27.27-.56.5-.87.71-.31.2-.63.3-.94.3-.85-.02-1.49-.27-1.92-.76-.43-.48-.71-1.1-.84-1.85-.13-.75-.17-1.6-.1-2.56.07-.95.16-1.91.27-2.88.11-.81.26-1.61.45-2.42s.39-1.56.59-2.27.39-1.33.57-1.88c.18-.55.31-.95.4-1.19Zm1.28-6.12c.2-.54.57-.96,1.11-1.28.54-.31,1.1-.41,1.68-.3.58.09,1,.35,1.26.79.26.44.29.94.08,1.5-.25.52-.64.93-1.18,1.24-.54.31-1.09.42-1.65.3-.58-.09-1.01-.35-1.28-.79-.27-.44-.28-.92-.03-1.46Z"/>
    <path class="cls-1" d="m76.3,256.46c-.02.2-.08.54-.17,1.01-.09.47-.17.94-.25,1.41-.08.47-.12.89-.13,1.26-.01.37.05.57.19.59.07.02.25-.16.54-.54s.64-.87,1.04-1.48c.4-.61.85-1.28,1.33-2.03.48-.75.96-1.5,1.43-2.24.47-.74.9-1.43,1.29-2.07.39-.64.7-1.15.93-1.53.09-.16.23-.27.42-.34.19-.07.38-.1.57-.08.19.01.34.06.44.15.1.09.11.22.02.4-.11.29-.31.71-.61,1.26s-.63,1.17-1.01,1.87c-.38.7-.8,1.44-1.26,2.22-.46.78-.92,1.55-1.4,2.29-.38.58-.75,1.14-1.11,1.68-.36.54-.71,1.01-1.06,1.41-.35.4-.69.72-1.04.96-.35.24-.69.35-1.02.35-1.05.02-1.82-.18-2.3-.61-.48-.43-.76-.96-.82-1.61-.05-.78-.02-1.67.08-2.64.1-.98.22-1.98.35-3.03s.28-2.08.44-3.13.27-2,.34-2.88c.05-.11.02-.27-.07-.49-.09-.21-.26-.24-.5-.08-.13.07-.34.25-.62.56-.28.3-.58.69-.91,1.16-.33.47-.63,1.02-.92,1.65-.29.63-.5,1.31-.64,2.05-.05.16-.08.25-.1.27-.11,1.21-.32,2.42-.62,3.63-.3,1.21-.66,2.48-1.06,3.8-.09.27-.32.51-.69.72-.37.21-.76.35-1.18.42-.42.07-.79.06-1.13-.03-.34-.09-.5-.29-.5-.61.25-.99.5-1.97.77-2.96.27-.99.5-1.98.69-2.99.19-1.01.3-2.02.34-3.03.03-1.01-.06-2.04-.29-3.09,0-.11-.04-.21-.12-.29-.08-.08-.18-.02-.32.19-.16.18-.3.39-.44.62-.13.24-.27.44-.4.62-.16.25-.34.41-.56.49-.21.08-.4.11-.57.08-.17-.02-.29-.1-.37-.22-.08-.12-.06-.27.05-.45.29-.54.61-1.07.94-1.6.34-.53.68-1.01,1.04-1.46.2-.27.48-.48.84-.64.36-.16.72-.24,1.09-.25.37-.01.71.05,1.03.18.31.13.53.36.64.67.16.45.29.88.39,1.29.1.42.18.82.25,1.23.2-.4.44-.79.71-1.16.27-.37.55-.71.84-1.01.29-.3.57-.58.84-.82.27-.25.5-.44.71-.57.38-.27.81-.46,1.28-.57.47-.11.92-.15,1.35-.1.43.05.79.16,1.11.35s.5.44.57.76c.09.4.13.96.12,1.66-.01.71-.06,1.48-.15,2.32-.09.84-.2,1.7-.32,2.57-.12.87-.23,1.69-.32,2.45Z"/>
    <path class="cls-1" d="m92.11,236.99c.07-.16.27-.27.61-.34s.69-.09,1.08-.07c.38.02.72.09,1.01.2.29.11.44.25.44.4-.07.11-.2.53-.39,1.24-.19.72-.42,1.63-.69,2.72-.27,1.1-.56,2.33-.88,3.7-.31,1.37-.62,2.76-.92,4.17-.3,1.41-.58,2.8-.84,4.15-.26,1.36-.47,2.57-.62,3.65-.16,1.08-.25,1.96-.29,2.66-.03.7.03,1.08.19,1.14.04.05.19-.12.44-.49.25-.37.54-.85.89-1.45.35-.59.73-1.27,1.14-2.02.41-.75.82-1.5,1.23-2.24.4-.74.78-1.43,1.14-2.07.36-.64.66-1.15.91-1.53.09-.16.23-.27.42-.34s.37-.1.56-.08c.18.01.32.06.44.15.11.09.12.22.03.4-.78,1.66-1.59,3.31-2.42,4.96s-1.64,3.18-2.42,4.59c-.07.11-.2.3-.4.57-.2.27-.44.54-.71.81s-.56.51-.87.72-.61.32-.87.32c-.54-.02-.99-.13-1.34-.32-.36-.19-.65-.45-.87-.77-.22-.32-.4-.71-.52-1.16-.12-.45-.2-.93-.22-1.45-.25.45-.52.89-.81,1.33-.29.44-.62.83-.98,1.19-.36.36-.75.66-1.18.89-.43.24-.9.36-1.41.39-.74.02-1.34-.09-1.8-.34-.46-.25-.81-.58-1.06-.99-.25-.41-.41-.87-.5-1.38-.09-.5-.12-1.01-.1-1.51.02-.5.07-.97.13-1.4s.13-.76.2-1.01c.22-1.01.59-2.09,1.11-3.25.52-1.15,1.14-2.2,1.87-3.14.73-.94,1.56-1.7,2.49-2.29.93-.58,1.93-.83,3.01-.74.34.02.67.11,1.01.27.29-1.17.59-2.33.91-3.5.31-1.17.6-2.22.87-3.18.27-.95.49-1.75.67-2.4.18-.65.29-1.05.34-1.21Zm-4.64,18.43l.07-.03c0-.13.02-.31.07-.54.05-.45.16-1.09.35-1.92.19-.83.41-1.77.66-2.82v-.03c.05-.22.1-.47.15-.72.06-.26.09-.5.1-.72.01-.22-.02-.41-.08-.55-.07-.15-.2-.21-.4-.19-.49.02-.95.28-1.38.76s-.83,1.1-1.23,1.85-.76,1.59-1.11,2.52-.7,1.85-1.06,2.77c-.31.85-.56,1.63-.72,2.34-.17.71-.26,1.31-.27,1.8-.01.49.06.87.2,1.13.15.26.37.36.69.32.29-.02.56-.14.82-.35.26-.21.5-.44.72-.69.22-.25.41-.49.57-.74.16-.25.27-.43.34-.54.13-.2.27-.46.42-.79.14-.32.29-.67.42-1.03.13-.36.26-.7.39-1.03s.22-.59.29-.79Z"/>
    <path class="cls-1" d="m110,250.95c-.18.36-.45.92-.81,1.68-.36.76-.8,1.61-1.33,2.56-.53.94-1.13,1.9-1.82,2.88-.68.97-1.44,1.85-2.27,2.62-.83.77-1.74,1.38-2.72,1.83s-2.03.61-3.13.47c-1.12-.13-1.98-.5-2.59-1.09-.61-.59-1.03-1.31-1.26-2.14-.24-.83-.31-1.72-.24-2.67.08-.95.26-1.85.56-2.71.22-.65.55-1.43.98-2.34.43-.91.96-1.78,1.6-2.61.64-.83,1.39-1.52,2.25-2.08.86-.56,1.84-.81,2.94-.74.65.05,1.16.19,1.53.44.37.25.64.56.81.94.17.38.26.8.27,1.24s-.03.89-.12,1.31c-.11.58-.37,1.3-.77,2.15-.4.85-.92,1.72-1.56,2.61-.64.89-1.38,1.73-2.22,2.52-.84.8-1.74,1.44-2.71,1.93.09.52.25.93.47,1.23.22.3.57.42,1.04.35.36-.07.8-.21,1.31-.44s1.09-.57,1.72-1.03c.63-.46,1.28-1.06,1.95-1.8.67-.74,1.33-1.65,1.99-2.72.36-.56.73-1.17,1.11-1.83.38-.66.9-1.55,1.55-2.67.09-.16.23-.27.42-.34s.38-.1.57-.1.34.05.44.13c.1.09.12.22.05.4Zm-12.17,3.97c-.11.31-.22.81-.34,1.5s-.17,1.38-.17,2.1c.52-.4,1.04-.93,1.56-1.58.53-.65,1.03-1.34,1.5-2.08s.89-1.48,1.24-2.22c.36-.74.61-1.41.76-2.02s.17-1.1.07-1.5c-.1-.39-.36-.6-.79-.62-.34-.02-.68.17-1.03.57-.35.4-.69.92-1.03,1.56-.34.64-.66,1.34-.98,2.1-.31.76-.58,1.49-.81,2.19Z"/>
    <path class="cls-1" d="m114.84,250.98c-.13.56-.33,1.19-.57,1.9-.25.71-.5,1.42-.76,2.15-.26.73-.5,1.44-.72,2.12s-.38,1.29-.47,1.82c-.09.53-.08.95.02,1.28.1.33.34.49.72.49.25,0,.55-.18.91-.56.36-.37.75-.85,1.16-1.45.41-.59.84-1.26,1.28-2,.44-.74.86-1.47,1.28-2.2.41-.73.8-1.42,1.16-2.07.36-.65.66-1.19.91-1.61.09-.16.24-.27.44-.34s.39-.1.57-.08c.18.01.32.06.42.15s.11.22.02.4c-.16.34-.36.77-.61,1.29-.25.53-.52,1.1-.82,1.71-.3.62-.63,1.26-.99,1.93-.36.67-.74,1.33-1.14,1.98-.38.63-.77,1.24-1.18,1.85s-.83,1.14-1.29,1.61c-.46.47-.95.85-1.48,1.14-.53.29-1.09.44-1.7.44-.92,0-1.58-.23-1.97-.69-.39-.46-.62-1.06-.67-1.8s.02-1.57.22-2.5.44-1.85.72-2.76c.28-.91.55-1.76.81-2.56.26-.8.42-1.44.49-1.93,0-.16-.04-.31-.12-.45-.08-.15-.18-.26-.3-.35s-.25-.13-.37-.12c-.12.01-.23.11-.32.29l-.03.07c-.05.11-.14.3-.29.57-.15.27-.26.45-.35.54-.16.25-.34.41-.56.49-.21.08-.4.11-.57.08s-.29-.1-.37-.22c-.08-.12-.06-.27.05-.45l.23-.47c.16-.4.26-.83.32-1.28.06-.45.08-.89.07-1.31-.01-.43-.05-.83-.1-1.21-.06-.38-.13-.71-.22-.97-.07-.13.04-.26.32-.39.28-.12.6-.22.96-.29s.68-.09.96-.07c.28.02.38.13.29.34-.13.31-.13.63,0,.94.13.31.36.61.67.87.2.22.52.5.94.84.43.34.76.64,1.01.91.38.36.68.7.89,1.01.21.31.26.62.15.91Z"/>
    <path class="cls-1" d="m125.53,247.01c.69.07,1.28.31,1.75.74.22-.02.48-.03.76-.02s.54.04.77.08c.24.05.43.11.59.19.16.08.23.17.23.29-.18.4-.37,1.04-.57,1.92-.2.87-.4,1.86-.61,2.96-.2,1.1-.39,2.23-.57,3.4-.18,1.17-.33,2.24-.44,3.23.72-.65,1.39-1.34,2.02-2.07.63-.73,1.2-1.53,1.72-2.4.51-.87,1-1.72,1.46-2.54s.84-1.46,1.13-1.93c.09-.16.23-.27.42-.34.19-.07.38-.1.55-.08.18.01.33.06.44.15s.12.22.03.4c-.76,1.59-1.55,3.13-2.35,4.61-.72,1.28-1.56,2.4-2.54,3.36s-2,1.85-3.08,2.66v.3c-.09,1.41-.13,2.82-.12,4.22.01,1.4,0,2.75-.05,4.05-.05,1.3-.16,2.51-.34,3.63-.18,1.12-.5,2.1-.98,2.93-.47.83-1.12,1.49-1.95,1.98-.83.49-1.93.75-3.3.77-1.17.02-2.09-.21-2.77-.69-.68-.48-1.21-1.06-1.56-1.73-.36-.67-.59-1.36-.69-2.07-.1-.71-.15-1.29-.15-1.77.02-1.3.29-2.45.79-3.45.5-1,1.16-1.91,1.97-2.74.81-.83,1.72-1.61,2.74-2.34,1.02-.73,2.07-1.47,3.14-2.24.02-.45.04-.89.07-1.31.02-.43.06-.84.1-1.24-.45.78-1,1.49-1.65,2.12-.65.63-1.42.96-2.32,1.01-.74.02-1.34-.09-1.8-.34-.46-.25-.81-.58-1.06-.99-.25-.41-.42-.87-.5-1.38s-.12-1.01-.1-1.51c.02-.5.07-.97.13-1.4s.13-.76.2-1.01c.22-1.01.59-2.09,1.11-3.25.51-1.15,1.14-2.2,1.87-3.14.73-.94,1.56-1.7,2.49-2.29.93-.58,1.93-.83,3.01-.74Zm-5.52,31.38c.94.02,1.66-.39,2.15-1.24.49-.85.86-1.97,1.09-3.36s.39-2.95.45-4.67c.07-1.73.13-3.45.2-5.18-.88.61-1.71,1.22-2.51,1.85-.8.63-1.51,1.31-2.14,2.03-.63.73-1.15,1.53-1.56,2.4-.41.87-.67,1.86-.76,2.96-.05.61-.02,1.21.08,1.82s.28,1.16.52,1.67c.25.5.57.91.98,1.23.4.31.9.48,1.48.5Zm4.67-22.97l.03-.03.1-.54c.11-.94.26-1.8.45-2.59.19-.78.38-1.49.56-2.12-.05-.05-.07-.09-.07-.13.07-.22.13-.46.19-.71.06-.25.1-.48.12-.71.02-.22,0-.4-.07-.54s-.2-.19-.4-.17c-.49.02-.95.28-1.38.76-.43.48-.84,1.1-1.23,1.85-.39.75-.76,1.59-1.11,2.52-.35.93-.7,1.85-1.06,2.77-.31.85-.55,1.63-.72,2.34-.17.71-.26,1.31-.27,1.8-.01.49.06.87.2,1.13s.38.36.69.32c.29-.02.57-.14.82-.35.26-.21.5-.44.72-.69.22-.25.42-.49.57-.74.16-.25.27-.43.34-.54.13-.2.27-.46.42-.79.15-.32.29-.67.42-1.03.13-.36.26-.7.39-1.03.12-.33.22-.59.29-.79Z"/>
    <path class="cls-1" d="m147.22,250.95c-.18.36-.45.92-.81,1.68-.36.76-.8,1.61-1.33,2.56-.53.94-1.13,1.9-1.82,2.88-.68.97-1.44,1.85-2.27,2.62-.83.77-1.74,1.38-2.72,1.83-.99.45-2.03.61-3.13.47-1.12-.13-1.98-.5-2.59-1.09-.61-.59-1.03-1.31-1.26-2.14-.24-.83-.31-1.72-.24-2.67.08-.95.26-1.85.56-2.71.22-.65.55-1.43.98-2.34s.96-1.78,1.6-2.61c.64-.83,1.39-1.52,2.25-2.08.86-.56,1.84-.81,2.94-.74.65.05,1.16.19,1.53.44.37.25.64.56.81.94.17.38.26.8.27,1.24.01.45-.03.89-.12,1.31-.11.58-.37,1.3-.77,2.15s-.92,1.72-1.56,2.61c-.64.89-1.38,1.73-2.22,2.52-.84.8-1.74,1.44-2.71,1.93.09.52.25.93.47,1.23.22.3.57.42,1.04.35.36-.07.79-.21,1.31-.44.52-.22,1.09-.57,1.72-1.03.63-.46,1.28-1.06,1.95-1.8.67-.74,1.33-1.65,1.98-2.72.36-.56.73-1.17,1.11-1.83.38-.66.9-1.55,1.55-2.67.09-.16.23-.27.42-.34s.38-.1.57-.1.34.05.44.13c.1.09.12.22.05.4Zm-12.17,3.97c-.11.31-.22.81-.34,1.5-.11.68-.17,1.38-.17,2.1.52-.4,1.04-.93,1.56-1.58.53-.65,1.03-1.34,1.5-2.08s.89-1.48,1.24-2.22c.36-.74.61-1.41.76-2.02.15-.61.17-1.1.07-1.5-.1-.39-.36-.6-.79-.62-.34-.02-.68.17-1.03.57-.35.4-.69.92-1.03,1.56-.34.64-.66,1.34-.98,2.1-.31.76-.58,1.49-.81,2.19Z"/>
    <path class="cls-1" d="m146.85,247.18c.05-.16.25-.26.61-.32.36-.06.74-.07,1.14-.05s.77.09,1.09.2c.33.11.48.25.45.4-.09.16-.24.58-.44,1.26-.2.68-.42,1.5-.64,2.45-.22.95-.44,1.97-.66,3.04-.21,1.08-.39,2.08-.52,3.01s-.21,1.72-.22,2.37c-.01.65.08,1.02.29,1.11.07.05.23-.12.49-.49.26-.37.57-.86.94-1.46.37-.61.78-1.28,1.23-2.03.45-.75.89-1.5,1.33-2.24.44-.74.84-1.43,1.21-2.07.37-.64.68-1.15.93-1.53.09-.16.23-.27.42-.34s.37-.1.56-.08c.18.01.32.06.42.15.1.09.12.22.05.4-.81,1.66-1.68,3.32-2.62,4.99-.94,1.67-1.82,3.21-2.62,4.62-.05.11-.16.3-.35.57-.19.27-.42.54-.69.81s-.56.5-.88.71c-.31.2-.63.3-.94.3-.85-.02-1.49-.27-1.92-.76-.43-.48-.71-1.1-.84-1.85-.13-.75-.17-1.6-.1-2.56.07-.95.16-1.91.27-2.88.11-.81.26-1.61.45-2.42s.39-1.56.59-2.27c.2-.71.39-1.33.57-1.88.18-.55.31-.95.4-1.19Zm1.28-6.12c.2-.54.57-.96,1.11-1.28.54-.31,1.1-.41,1.68-.3.58.09,1,.35,1.26.79.26.44.29.94.08,1.5-.25.52-.64.93-1.18,1.24-.54.31-1.09.42-1.65.3-.58-.09-1.01-.35-1.28-.79-.27-.44-.28-.92-.03-1.46Z"/>
    <path class="cls-1" d="m165.95,252.06c-.34.56-.7,1.12-1.08,1.67-.38.55-.81,1.08-1.28,1.58-.47.5-1,.98-1.6,1.43s-1.26.84-2,1.18c-.13,1.14-.53,2.15-1.18,3.03-.38.45-.81.89-1.28,1.33-.47.44-1.12.74-1.95.92-1.05.2-1.91.11-2.57-.29-.66-.39-1.09-.9-1.28-1.51s-.13-1.25.19-1.9c.31-.65.91-1.12,1.78-1.41.38-.13.8-.25,1.26-.34s.91-.19,1.36-.3c.04-.54.07-1.09.08-1.65.01-.56.01-1.09,0-1.6-.01-.5-.03-.96-.05-1.38s-.04-.75-.07-.99c-.04-.61-.1-1.03-.15-1.26-.06-.24-.21-.16-.45.22-.05.09-.09.17-.13.25-.05.08-.11.15-.2.22-.16.25-.34.41-.56.49-.21.08-.4.11-.57.08-.17-.02-.29-.1-.37-.22-.08-.12-.06-.27.05-.45l.54-.91.03-.1c.31-.54.55-1.09.71-1.65.16-.56.33-1.23.5-2.02.05-.2.24-.4.59-.59.35-.19.72-.32,1.11-.4.39-.08.74-.08,1.06,0,.31.08.46.27.44.59-.04.92.02,1.87.19,2.86.17.99.34,1.98.52,2.99.11.72.22,1.42.32,2.12.1.7.16,1.39.18,2.08,1.1-.61,2.02-1.33,2.76-2.19.74-.85,1.47-1.88,2.19-3.09.09-.16.23-.27.42-.34s.38-.1.56-.08c.18.01.33.06.44.15s.12.22.03.4l-.54,1.08Zm-11.64,9.62c.49-.05.88-.32,1.16-.82.28-.5.5-1.13.66-1.87-.72.2-1.27.42-1.67.64-.39.22-.69.44-.89.66-.2.21-.33.4-.37.57-.05.17-.07.3-.07.39.02.11.11.22.25.34.14.11.45.15.92.1Z"/>
    <path class="cls-1" d="m164.22,242.16c.01-.28.26-.43.76-.45.45-.02.87-.04,1.26-.05.39-.01.78-.02,1.16-.02l1.31-4.64c.04-.16.24-.27.57-.34.34-.07.69-.09,1.08-.07.38.02.72.09,1.03.2.3.11.45.25.45.4-.07.13-.21.59-.42,1.38-.21.78-.47,1.78-.76,2.99.38-.02.76-.03,1.13-.03h1.16c.47-.02.77.03.91.17.13.13.17.29.12.45-.06.17-.18.33-.39.49-.2.16-.42.25-.64.27h-1.31c-.43,0-.86-.01-1.31-.03-.27,1.14-.55,2.37-.84,3.68-.29,1.31-.57,2.62-.84,3.92-.27,1.3-.52,2.56-.74,3.78-.22,1.22-.4,2.3-.54,3.25s-.21,1.72-.24,2.32.03.94.17,1.01c.07.02.22-.15.47-.52s.54-.86.89-1.48c.35-.62.73-1.31,1.16-2.07.43-.76.84-1.52,1.24-2.27.4-.75.78-1.45,1.14-2.1.36-.65.66-1.17.91-1.55.09-.16.23-.27.42-.34s.38-.1.56-.08c.18.01.32.06.44.15.11.09.12.22.03.4-.78,1.66-1.59,3.35-2.42,5.06s-1.64,3.28-2.42,4.69c-.07.11-.2.3-.4.57-.2.27-.44.54-.72.81-.28.27-.58.5-.89.71-.32.2-.62.3-.91.3-.88-.02-1.53-.29-1.95-.79-.43-.5-.71-1.15-.86-1.93-.15-.78-.18-1.66-.12-2.64s.17-1.94.3-2.91c.07-.47.2-1.16.39-2.07.19-.91.43-1.92.71-3.03.28-1.11.58-2.27.89-3.48.31-1.21.63-2.38.94-3.5l-2.12-.13c-.52-.04-.77-.21-.76-.49Z"/>
    <path class="cls-1" d="m69.59,276.24c-.72.09-1.33.16-1.85.2-.52.05-.99.09-1.41.13-.16.9-.26,1.98-.32,3.26-.06,1.28-.13,2.66-.22,4.14-.09,1.48-.21,3.01-.35,4.59-.15,1.58-.37,3.13-.67,4.66-.3,1.53-.71,2.97-1.23,4.32-.52,1.36-1.19,2.56-2.02,3.6-.83,1.04-1.83,1.87-2.99,2.49s-2.57.94-4.2.96c-1.14.02-2.05-.16-2.71-.56-.66-.39-1.14-.89-1.45-1.48-.3-.59-.45-1.23-.44-1.9.01-.67.11-1.29.29-1.85.04-.29.25-.55.61-.77s.74-.39,1.16-.49c.41-.1.78-.13,1.09-.08.31.05.44.18.37.4-.16.4-.31.91-.45,1.53-.15.62-.19,1.2-.13,1.75.06.55.25,1,.59,1.36.34.36.91.5,1.71.44,1.21-.11,2.21-.65,2.99-1.61s1.42-2.19,1.92-3.68c.49-1.49.88-3.16,1.16-4.99.28-1.84.52-3.7.71-5.6.19-1.89.38-3.73.56-5.5.18-1.77.43-3.32.74-4.64h-.84c-.29,0-.66,0-1.09-.02-.44-.01-1-.03-1.7-.05-.7-.02-1.58-.03-2.66-.03-.25-.02-.4-.1-.45-.24s-.05-.28.02-.44.19-.3.37-.44c.18-.13.39-.2.64-.2,1.32-.13,2.31-.25,2.98-.35.66-.1,1.17-.18,1.51-.23.35-.06.62-.1.82-.13s.51-.06.92-.07c.41-.01,1.01-.02,1.8-.03.78-.01,1.94-.02,3.46-.02.25,0,.47.07.67.22.2.15.35.31.45.5.1.19.13.37.08.54-.05.17-.19.28-.44.32Z"/>
    <path class="cls-1" d="m69.59,287.54c.04-.16.25-.26.61-.32.36-.06.74-.07,1.14-.05s.77.09,1.09.2c.32.11.48.25.45.4-.09.16-.23.58-.44,1.28-.2.7-.42,1.52-.66,2.47-.24.95-.47,1.97-.69,3.04-.22,1.08-.4,2.07-.54,2.98s-.2,1.67-.19,2.29.14.94.39.96c.18.02.44-.15.77-.5s.71-.83,1.13-1.41c.41-.58.85-1.24,1.31-1.97.46-.73.89-1.47,1.29-2.22.4-.75.76-1.47,1.08-2.15.31-.68.54-1.27.67-1.77,0-.07.03-.12.1-.17.18-.72.36-1.34.54-1.88.18-.54.3-.93.37-1.18.07-.16.28-.26.64-.32s.74-.07,1.14-.05.77.09,1.09.2c.32.11.49.25.49.4-.09.16-.23.58-.42,1.26-.19.68-.4,1.5-.62,2.45-.22.95-.45,1.96-.67,3.03-.22,1.07-.4,2.06-.54,2.99-.13.93-.21,1.72-.22,2.37-.01.65.08,1.03.29,1.14.07.02.23-.15.49-.52.26-.37.57-.85.94-1.45.37-.59.78-1.27,1.23-2.02.45-.75.89-1.5,1.31-2.24.43-.74.82-1.43,1.19-2.07.37-.64.67-1.15.89-1.53.09-.16.23-.27.44-.34s.39-.1.57-.08.32.06.42.15c.1.09.11.22.02.4-.38.83-.79,1.66-1.23,2.49-.44.83-.89,1.65-1.35,2.47-.46.82-.91,1.62-1.34,2.4s-.86,1.52-1.26,2.22c-.07.11-.2.3-.39.57-.19.27-.42.54-.69.81-.27.27-.56.5-.86.71-.3.2-.6.3-.89.3-.78-.02-1.39-.22-1.82-.61-.43-.38-.72-.89-.89-1.53-.17-.64-.25-1.36-.24-2.17s.07-1.64.19-2.49c-.45.79-.91,1.51-1.4,2.19-.48.67-.95,1.33-1.4,1.98-.07.11-.2.3-.4.57-.2.27-.44.54-.71.81-.27.27-.56.5-.86.71-.3.2-.6.3-.89.3-.87-.02-1.53-.26-1.97-.71-.44-.45-.73-1.04-.87-1.77-.15-.73-.18-1.55-.1-2.47.08-.92.19-1.86.32-2.82.09-.81.22-1.61.4-2.42.18-.81.37-1.56.57-2.27.2-.71.39-1.33.56-1.88.17-.55.3-.95.39-1.19Zm1.85-3.43c-.07-.38.07-.69.42-.94.35-.25.81-.37,1.39-.37.54,0,1,.12,1.4.37.39.25.61.56.66.94.02.38-.12.7-.42.94-.3.25-.75.37-1.33.37s-1.08-.12-1.48-.37c-.4-.25-.62-.56-.64-.94Zm6.05-.03c-.05-.36.1-.67.44-.92s.8-.39,1.38-.39c.54,0,1,.13,1.4.39.39.26.62.57.69.92.02.38-.14.7-.49.94-.35.25-.79.37-1.33.37-.58,0-1.07-.12-1.46-.37-.39-.25-.6-.56-.62-.94Z"/>
    <path class="cls-1" d="m99.08,291.3c-.16.36-.4.92-.74,1.68-.34.76-.76,1.61-1.26,2.56-.5.94-1.09,1.9-1.75,2.88-.66.97-1.4,1.84-2.2,2.61-.36.31-.77.62-1.23.91s-.93.55-1.41.77c-.48.22-.96.4-1.45.54-.48.13-.91.2-1.29.2-.99,0-1.78-.3-2.39-.89-.61-.59-1.05-1.42-1.33-2.49-.28-1.06-.41-2.33-.39-3.8.02-1.47.18-3.08.47-4.83.11-.63.26-1.45.45-2.47.19-1.02.44-2.1.76-3.23.31-1.13.7-2.27,1.16-3.41.46-1.14,1-2.16,1.63-3.06s1.36-1.61,2.19-2.14c.83-.53,1.77-.75,2.83-.66.74.07,1.28.32,1.61.76.34.44.55.95.64,1.53.09.58.11,1.18.05,1.8-.06.62-.1,1.14-.12,1.56-.05.69-.18,1.54-.4,2.52-.22.99-.53,2.04-.92,3.16-.39,1.12-.85,2.26-1.38,3.41-.53,1.16-1.11,2.24-1.75,3.26-.64,1.02-1.32,1.92-2.05,2.71-.73.78-1.49,1.37-2.27,1.75.04.94.21,1.6.49,1.98.28.38.63.64,1.06.77.31.11.78-.02,1.4-.4.62-.38,1.27-.88,1.95-1.5s1.35-1.3,1.98-2.05c.64-.75,1.15-1.43,1.53-2.03.36-.56.74-1.17,1.14-1.83.4-.66.93-1.55,1.58-2.67.07-.16.2-.27.39-.34s.38-.1.56-.1.32.05.42.13c.1.09.12.22.05.4Zm-12.01,2.08c-.16.85-.28,1.61-.35,2.27-.08.66-.14,1.26-.18,1.8.67-.67,1.37-1.6,2.1-2.79.73-1.19,1.42-2.48,2.07-3.88s1.22-2.83,1.72-4.29c.49-1.46.85-2.78,1.08-3.98s.28-2.18.17-2.94c-.11-.76-.46-1.17-1.04-1.21-.4-.02-.8.24-1.19.77-.39.54-.77,1.24-1.14,2.12-.37.87-.72,1.87-1.06,2.98-.34,1.11-.64,2.22-.91,3.33-.27,1.11-.51,2.18-.72,3.21-.21,1.03-.39,1.91-.52,2.62Z"/>
    <path class="cls-1" d="m98.71,287.54c.05-.16.25-.26.61-.32.36-.06.74-.07,1.14-.05.4.02.77.09,1.09.2.33.11.48.25.45.4-.09.16-.24.58-.44,1.26s-.42,1.5-.64,2.45c-.22.95-.44,1.97-.66,3.04-.21,1.08-.39,2.08-.52,3.01s-.21,1.72-.22,2.37c-.01.65.08,1.02.29,1.11.07.05.23-.12.49-.49.26-.37.57-.86.94-1.46.37-.61.78-1.28,1.23-2.03.45-.75.89-1.5,1.33-2.24.44-.74.84-1.43,1.21-2.07.37-.64.68-1.15.93-1.53.09-.16.23-.27.42-.34s.38-.1.56-.08c.18.01.32.06.42.15s.12.22.05.4c-.81,1.66-1.68,3.32-2.62,4.99-.94,1.67-1.82,3.21-2.62,4.62-.04.11-.16.3-.35.57-.19.27-.42.54-.69.81s-.56.5-.87.71c-.31.2-.63.3-.94.3-.85-.02-1.49-.27-1.92-.76s-.71-1.1-.84-1.85-.17-1.6-.1-2.56c.07-.95.16-1.91.27-2.88.11-.81.26-1.61.45-2.42s.39-1.56.59-2.27c.2-.71.39-1.33.57-1.88.18-.55.31-.95.4-1.19Zm1.28-6.12c.2-.54.57-.96,1.11-1.28.54-.31,1.1-.41,1.68-.3.58.09,1,.35,1.26.79.26.44.29.94.08,1.5-.25.52-.64.93-1.18,1.24-.54.31-1.09.42-1.65.3-.58-.09-1.01-.35-1.28-.79-.27-.44-.28-.92-.03-1.46Z"/>
    <path class="cls-1" d="m112.8,293.89c-.13.27-.34.45-.62.54-.28.09-.55.11-.82.05-.27-.06-.48-.17-.62-.34-.15-.17-.14-.38.02-.62.34-.58.62-1.15.84-1.7.22-.55.37-1.04.44-1.46s.04-.77-.08-1.03c-.12-.26-.36-.41-.72-.45-.32-.02-.66.17-1.03.57-.37.4-.74.92-1.11,1.55-.37.63-.72,1.32-1.06,2.07s-.64,1.47-.91,2.17c-.07.2-.15.51-.25.92-.1.42-.18.87-.25,1.36-.07.49-.11,1-.13,1.51-.02.52.01.98.1,1.38.09.4.24.73.45.98.21.25.52.34.92.27.36-.04.83-.26,1.43-.66.59-.39,1.21-.88,1.85-1.46s1.27-1.22,1.88-1.9c.62-.68,1.11-1.33,1.5-1.93.18-.29.36-.58.54-.87.18-.29.37-.61.59-.96.21-.35.44-.74.69-1.18.25-.44.53-.94.84-1.5.09-.16.24-.27.44-.34.2-.07.39-.1.57-.1s.32.05.42.13c.1.09.11.22.02.4-.13.25-.37.72-.69,1.41-.33.7-.75,1.5-1.26,2.42-.52.92-1.12,1.88-1.8,2.88s-1.45,1.9-2.29,2.71-1.75,1.46-2.72,1.97c-.98.5-2.01.71-3.11.62-1.12-.07-1.97-.4-2.55-1.01-.58-.61-.97-1.33-1.16-2.19-.19-.85-.22-1.77-.1-2.74s.35-1.88.69-2.71c.25-.65.61-1.43,1.08-2.34s1.04-1.77,1.72-2.57,1.45-1.48,2.34-2.02c.89-.54,1.87-.77,2.94-.71.63.05,1.13.2,1.5.45.37.26.63.58.79.96.16.38.23.8.22,1.24-.01.45-.07.89-.18,1.31-.09.38-.24.82-.45,1.31-.21.49-.5,1.02-.86,1.58Z"/>
    <path class="cls-1" d="m119.6,297.66c-.07.61-.12,1.18-.17,1.73-.05.55-.08,1.04-.1,1.48-.02.44-.03.8-.03,1.09s.01.48.03.57c-.04.18-.25.3-.61.35s-.74.07-1.14.05c-.4-.02-.77-.08-1.11-.19-.34-.1-.5-.23-.5-.39.02-.29.03-.73.03-1.31s.02-1.26.07-2.02c-.05-.58-.03-1.2.03-1.85l.2-1.95c.07-.52.22-1.29.45-2.34s.51-2.2.82-3.46c.31-1.27.66-2.58,1.03-3.93s.71-2.61,1.03-3.75c.31-1.14.58-2.11.81-2.91.22-.8.36-1.27.4-1.43.04-.16.23-.27.57-.34.34-.07.7-.09,1.09-.07.39.02.74.08,1.04.18s.45.23.45.39c-.07.13-.2.54-.39,1.23-.19.68-.42,1.56-.69,2.62-.27,1.06-.55,2.25-.86,3.56-.3,1.31-.6,2.65-.89,4.02.31-.38.63-.71.94-.98.31-.27.57-.49.77-.67.38-.27.81-.46,1.28-.57.47-.11.92-.15,1.34-.1.43.05.8.16,1.11.35.31.19.5.44.57.76.11.4.15.96.1,1.66-.05.71-.13,1.47-.25,2.3-.12.83-.26,1.69-.42,2.57-.16.89-.29,1.7-.4,2.44-.02.11-.08.4-.17.86-.09.46-.15.95-.18,1.46-.03.52,0,.98.08,1.38.09.4.31.61.67.61.11.02.31-.16.59-.54.28-.38.61-.87.98-1.48.37-.61.77-1.28,1.21-2.03.44-.75.86-1.5,1.28-2.24.42-.74.8-1.43,1.16-2.07.36-.64.66-1.15.91-1.53.09-.16.23-.27.42-.34.19-.07.37-.1.56-.08.18.01.32.06.42.15.1.09.12.22.05.4-.18.36-.43.91-.76,1.65-.33.74-.71,1.56-1.14,2.45-.44.9-.92,1.82-1.44,2.77-.53.95-1.08,1.82-1.67,2.61-.58.78-1.18,1.42-1.8,1.92s-1.23.73-1.83.71c-.92-.02-1.59-.26-2-.71s-.68-1-.79-1.65c-.18-.76-.24-1.63-.18-2.61.06-.98.16-1.98.32-3.03s.33-2.08.5-3.11c.18-1.03.3-1.98.37-2.86.02-.07.02-.15,0-.24s-.06-.17-.1-.25c-.04-.08-.11-.13-.2-.15-.09-.02-.19,0-.3.07-.13.07-.34.25-.62.56-.28.3-.58.69-.89,1.16-.31.47-.61,1.02-.89,1.65-.28.63-.49,1.31-.62,2.05,0,.02-.01.05-.03.07-.11.61-.21,1.18-.3,1.73-.09.55-.16,1.06-.2,1.53Z"/>
  </g>
  <path class="cls-2" d="m149.47,87.22c-3.54-25.95-25.16-46.79-51.11-49.54-35.38-3.93-65.26,23.59-65.26,58.19.39,17.3,8.26,33.03,20.44,43.64,4.55,4.17,9.15,8.45,11.11,14.37.14.42.34.8.43,1.23.52,2.6,2.36,12.62,2.89,25.04.11,2.51,2.17,4.48,4.68,4.48h38.47c2.51,0,4.58-1.98,4.68-4.48.61-14.48,3.02-25.7,3.02-25.7h0c2.17-6.03,6.68-11.01,11.4-14.94,14.15-12.19,22.41-31.45,19.26-52.29Z"/>
  <path class="cls-1" d="m138.07,92.72c-1.57-5.11-7.08-25.16-22.41-34.2-15.33-9.04-26.34-7.86-37.74-5.11-11.4,2.75-22.41,11.4-26.34,16.51s-5.5,17.69-5.5,22.02c0,1.18.39,2.75.79,3.93,1.57,4.32,5.11,7.86,9.44,9.44,6.68,2.36,11.79,1.18,11.79,1.18,0,0-1.57,2.75-1.57,4.72s4.32,9.04,12.19,11.4c7.47,2.36,14.94-3.54,14.94-3.54,1.18-.39,4.32-.79,4.32-.79,1.97,6.68,5.9,5.9,5.9,5.9,0,0,1.47,1.84,3.04,3.26v1.47c0,2.51-1,4.91-2.78,6.67l-12.23,12.12c-1.78,1.76-2.78,4.17-2.78,6.67v28.52h6.11v-27.22c0-2.51,1-4.91,2.78-6.67l12.23-12.12c1.78-1.76,2.78-4.17,2.78-6.67v-5.06c12.08-1.7,15.62-11.59,15.62-11.59,7.47-2.75,11.01-15.73,9.44-20.84Z"/>
  <path class="cls-3" d="m81.02,214.6c2.22,4.34,6.38,7.34,11.09,7.34s8.59-3,11.09-7.34h-22.18Z"/>
  <g>
    <path class="cls-3" d="m112.35,188.42h-40.47c-2.22,0-3.88,2-3.88,4.67h0c0,2.67,1.66,4.67,3.88,4.67h40.47c2.22,0,3.88-2,3.88-4.67h0c0-2.67-1.94-4.67-3.88-4.67Z"/>
    <path class="cls-3" d="m112.35,201.47h-40.47c-2.22,0-3.88,2-3.88,4.67h0c0,2.67,1.66,4.67,3.88,4.67h40.47c2.22,0,3.88-2,3.88-4.67h0c0-2.33-1.94-4.67-3.88-4.67Z"/>
  </g>
  <g>
    <path class="cls-3" d="m82.64,118.67c-1.18.39-2.75,0-3.93-.79s-2.36-1.97-2.75-2.75v-.79h0v-.79c0-1.57-.39-3.54,0-4.72.39-1.97,1.18-3.93,2.75-5.11.39-.39.39-.79,0-.79q-.39-.39-.79,0c-1.57,1.57-2.75,3.54-3.15,5.9v3.93c-.39-.39-.39-.79-.79-.79h-2.75c-.39,0-.79.39-.79.79s.39.79.39.79h2.75s.39.79.79,1.18c.39.39.39.79.39.79.79,1.97,2.75,3.54,3.54,3.93,1.18.79,2.36.79,3.54.79h1.57c.39,0,.39-.39.39-.79-.79-.39-1.18-.79-1.18-.79Z"/>
    <path class="cls-3" d="m126.65,101.81c-1.97,1.57-6.68,1.57-7.86,1.57-.39-1.18-.79-1.97-.79-2.75.79,0,1.18-.39,1.97-.79.39-.39.39-.79,0-.79q-.39-.39-.79,0c-.39.39-1.18.39-1.97.79-3.15.39-6.29,0-9.44-.39,0-.79.39-1.57.39-2.36h0l.39-.39c.79-.79,1.18-1.57,1.97-2.36.79-1.57,1.18-2.75,1.97-4.32,1.18,1.18,3.93,3.93,6.68,3.93-.39,1.18-.79,3.15-1.57,3.93-1.57-.79-1.57-.39-1.57,0l.39.39h.39c1.57-1.18,1.97-3.93,2.36-5.11.79-.39,1.18-.79,1.97-1.18.39-.39.79-1.18,1.18-1.57.39.79.39,1.57.79,2.36v3.54c0,.79,0,1.57-.39,2.36s-.79,1.18-1.18,1.57c-.39,0-.39.39-.39.79s.39.39.39.39h.39c.79-.39,1.57-1.18,1.97-2.36.39-.79.39-1.97.39-2.75v-3.93c0-1.18-.39-2.36-1.18-3.54,1.57-3.15,1.57-5.11,1.57-5.11,0-.39-.39-.79-.79-.39-.39,0-.39.39-.39.79,0,0,0,1.57-1.57,4.32h0l-.39.39c-.39.79-.79,1.57-1.57,2.36-.79.79-1.18,1.18-2.36,1.18h0c-2.75,0-5.5-3.15-6.29-3.93.79-3.93.79-8.26.79-11.01,1.97-.39,3.93-1.18,5.9-2.36.39,0,.39-.39,0-.79,0-.39-.39-.39-.79,0-2.36,1.57-5.11,2.36-8.26,2.36-1.57,0-3.15-.39-4.32-1.18-1.57-.79-2.36-1.97-3.15-3.15,0-.39-.39-.39-.79-.39s-.39.39-.39.79c.79,1.18,1.57,1.97,2.36,2.75h0c0,1.57,0,3.15-.39,5.11-.39,2.36-.79,4.32-1.97,6.29-1.18,1.57-3.15,2.75-4.72,1.97l-.39-.39c-.39-.39-1.18-.79-1.57-.79h-.39c-.39,0-.39-.39-.39-.39-.39-.39-.39-.79-.39-1.18-.39-1.18-.79-2.36-.79-3.93,0-.39-.39-.79-.79-.79s-.39.39-.39.79c0,1.57.39,2.75.79,4.32.39.39.39,1.18.79,1.57h0c-1.57.79-3.54,1.57-4.72,2.75-.79.79-1.18,1.18-1.57,1.97-.79,1.18-1.57,1.97-2.75,2.75-1.18.79-2.75.39-3.93.39h-.39c-.79,0-1.57-.39-1.97,0-2.36,0-4.72,2.36-5.11,5.11,0,.39,0,.79.39.79h0c.39,0,.39-.39.39-.39.39-1.97,1.97-3.54,3.93-3.93h2.36c1.18.39,3.15.39,4.32-.39,1.18-.79,2.36-1.97,3.15-3.15.39-.79.79-1.18,1.57-1.97,1.18-1.18,3.15-1.97,4.72-2.75.39,0,.79-.39.79-.39h0c.39,0,.79.39,1.18.39s.39.39.79.39c2.36,1.18,4.72-.39,6.29-2.36,1.18-1.97,1.97-4.32,1.97-6.68.39-1.57.39-3.15.39-4.72h0c1.57.79,3.15,1.18,4.72,1.18h1.97c0,3.93,0,11.01-2.75,16.12-.39.79-1.18,1.57-1.57,2.36-.79.79-1.57,1.18-2.36,1.57-3.54,1.97-8.26,2.36-13.37,2.36-.79,0-1.57,0-2.36-.39-.39,0-.79-.39-1.18-.79-.39-.39-.79-.39-.79-.79-1.97-1.18-4.32-1.18-5.9.79-.39.79-.79,1.97-.79,2.75,0,1.57.79,3.54,1.57,4.72l.39.39.79.79c0,.39,0,1.18-.39,1.18-.39.39-.79.79-1.18.79h-.39c-.79.39-1.97.79-2.75,1.57-.39.39-.39.79,0,.79l.39.39h.39c.79-.39,1.57-1.18,2.36-1.57h.39c.39-.39,1.18-.39,1.57-1.18.79-.79,1.18-1.57.79-2.75,0-.79-.39-1.18-.79-1.57v-.39c-.79-1.18-1.57-2.36-1.57-3.93,0-.79,0-1.57.39-1.97.79-1.57,3.15-1.57,4.32-.79.39,0,.39.39.79.39.39.39.79.79,1.18.79.79.39,1.57.39,1.97.39,0,.39.39,1.18.79,1.57s.79,1.18.79,1.57v7.08h-.79c-.39,0-1.18.39-1.57.79l-.39,1.57c-1.18.79-2.36,1.18-3.54,1.18h-1.97c-.79.39-1.57.79-1.97,1.57,0,.39,0,.79.39.79h.39q.39,0,.39-.39c0-.39.79-.79,1.18-.79h1.97c1.57,0,2.75-.79,3.93-1.57l.39-.39c.39-.39.79-.39,1.18-.39h5.5c.79,0,1.97,0,3.15-.39.39,0,.39-.39.79-.39.39-.39.79-.39.79-.39.79,0,1.18,0,1.97.39.39,0,.39.39.79.39.79.39,1.97.39,3.15.39.39,0,.39-.39.39-.79s-.39-.39-.79-.39h-2.36q-.39,0-.79-.39c-.79-.39-1.57-.79-2.75-.39-.39,0-.79.39-1.18.79-.39,0-.39.39-.79.39-.79.39-1.57.39-2.36,0h-3.93v-6.68c.79.39,1.57.79,2.75,1.18l2.75,1.18c.79.39,1.57.79,2.36.79h4.32c.39,0,.79-.39,1.18-.39h0c2.75-.79,5.5-1.57,8.65-1.57.39,0,.39-.39.39-.79s-.39-.79-.79-.79c-3.15,0-5.9.79-8.65,1.57h0c-.39,0-.79.39-1.18.39h-3.93c-.79,0-1.57-.39-2.36-.79l-2.75-1.18c-1.18-.39-2.36-.79-3.54-1.18,0-.39-.39-.79-.39-1.18s-.39-.39-.39-.79c5.11.39,9.83-.39,13.37-2.36.39-.39.79-.39,1.18-.79,0,1.18-.39,2.75-1.18,3.54s-1.57,1.18-2.36,1.18h-5.5c-.39,0-.79.39-.79.79s.39.79.39.79h5.9c1.18-.39,1.97-.79,2.75-1.57.39-.39.79-.79.79-1.57h0c2.36.39,4.32.39,6.68.39h2.75c.79,1.18,1.57,3.93.79,5.5-1.18,1.97-2.75,2.75-2.75,2.75-.39,0-.39.39-.39.79s.39.39.39.39h.39s1.97-.79,3.54-3.15c.39-.79.79-1.57.39-2.36,1.57,0,6.29-.39,8.65-1.97.39-.39.39-.79,0-.79,1.18-.79.79-.79.79-.39Z"/>
    <path class="cls-3" d="m134.93,102.55c-1.18-.79-2.75-1.18-4.32-1.57-1.18-.39-2.75-.79-3.93,0-.39,0-.39.39-.39.79s.39.39.79.39c.79-.39,1.97-.39,3.15,0,1.57.39,2.75.79,3.93,1.57h.39q.39,0,.39-.39c.39,0,.39-.39,0-.79Z"/>
    <path class="cls-3" d="m116.45,81.72c-.39,0-.79,0-.79.39,0,0-1.18,2.75.39,4.32.79.79,1.57,1.18,2.75,1.18s1.97-1.18,2.75-2.36c.39-.79.79-1.57.79-1.97.39-1.18.79-1.57.79-1.57h.79c.39,0,.39.39.79.79,0,.39,0,1.18.39,1.97.39,1.97.39,3.54.79,3.93l.39.39h.39c.39-.39.39-.79,0-.79-.39-.39-.39-2.36-.79-3.54,0-.79,0-1.57-.39-1.97,0-.79-.79-1.57-1.18-1.97-.79-.39-1.18-.39-1.97,0s-1.18,1.18-1.57,2.36c-.39.39-.39,1.18-.79,1.97-.39,1.18-1.18,1.57-1.97,1.97-.39,0-1.18,0-1.57-.79-1.18-1.18-.39-3.15-.39-3.15.79-.39.79-.79.39-1.18Z"/>
    <path class="cls-3" d="m84.21,80.14c.79-1.18,1.57-1.97,2.75-2.75,1.18-.79,2.75-1.18,3.93-1.18.39,0,.39-.39.39-.79s-.39-.39-.79-.39c-1.57.39-2.75.79-4.32,1.57-1.57.79-2.75,1.97-3.54,3.15-.79,1.18-.79,2.36-1.18,3.54-.39,1.97-.79,4.72,0,6.68,0,.39.39.79.39,1.18s.39.79.39,1.18c0,.79.39,1.57,0,2.36,0,.39,0,.79.39.79h.39q.39,0,.39-.39c.39-.79.39-1.97,0-3.15,0-.39-.39-.79-.39-1.18s-.39-.79-.39-1.18c-.79-1.97-.39-4.32,0-6.29.79-.79,1.18-1.97,1.57-3.15Z"/>
    <path class="cls-3" d="m64.55,69.14c1.18-2.36,3.15-3.54,5.11-4.72,4.32-1.97,8.26-2.75,11.4-1.97.39,0,2.36.79,2.36,1.97s-.79,2.36-1.97,3.15q-.39.39,0,.79c0,.39.39.39.79.39,2.36-1.18,5.9-.39,7.47,1.57l.39.39h0c.39,0,.39-.39.39-.39.39-1.57,2.36-2.75,3.93-3.54h.39c1.57-.79,3.54-1.97,4.32-3.54.39-.39.39-.79.39-1.18s.39-.39.39-.79.39-.79.79-1.18c1.57.79,3.15,1.97,4.32,3.15,1.18,1.18,1.57,3.15,1.57,4.72-.79,0-1.57.39-2.75.79-1.18.39-1.57.79-2.36.79s-1.18.39-1.97.79c-1.57,1.18-5.9,7.86-6.29,9.83h0c-1.18-.79-3.15-1.57-7.08-.79-.39,0-.39.39-.39.79s.39.39.79.39c4.32-.79,6.29.79,6.68,1.18,0,2.36.39,5.11,2.75,5.9h0q.39,0,.39-.39c0-.39,0-.79-.39-.79-2.75-.79-1.97-5.5-1.97-5.9.39-1.97,4.32-8.26,5.5-9.04.79-.39,1.18-.39,1.57-.79.39,0,1.18-.39,2.36-.79,2.36-.79,4.32-1.18,5.5-.79s5.11,3.15,6.29,4.32c.39.79.79,1.18.79,1.57s0,.79.39,1.18c.39.39,1.18.39,1.97.79.79,0,1.97.39,3.54.79,2.36.79,2.75,1.97,2.75,1.97,0,.39.39.39.79.39s.39-.39.39-.79-.39-1.57-3.54-2.75c-1.57-.79-2.75-.79-3.93-.79-.39,0-1.18,0-1.18-.39v-.39c0-.39,0-1.18-1.18-2.36-1.18-1.18-5.5-4.32-7.08-4.72h-2.75c0-1.57-.39-3.15-1.57-4.72.39-1.18,1.97-1.97,3.15-1.57.39,0,.79.39,1.18.39s.39,0,.79.39c1.18.39,2.75.39,3.93,0,.39,0,.39-.39.39-.79s-.39-.39-.79-.39c-1.18.39-2.36.39-3.54,0q1.97-.79,1.57-.79c-.39,0-1.18-.39-1.57-.39-1.57-.39-3.15.79-3.93,1.97-1.18-1.18-2.75-2.36-3.93-2.75.79-.79,1.57-1.18,2.36-1.57.39,0,.39-.39.39-.79s-.39-.39-.79-.39c-1.97.79-3.54,2.36-4.72,4.32,0,.39-.39.39-.39.79s-.39.79-.39,1.18c-.79,1.57-2.36,2.36-3.93,3.15h-.39c-1.57.79-3.15,1.97-3.93,3.54-.79-.79-1.97-1.57-3.15-1.97v-.39c-.39-1.57,0-3.15.79-4.32l.39-.39c.39-.39.79-1.18,1.18-1.97h0s0-.39,1.18-.79c.39,0,.79,0,1.57-.39h.39c.79,0,1.57,0,1.97-.79.79-.39,1.18-1.18,1.18-1.97.39-.79.39-1.57.39-1.97s0-.79-.39-.79-.79,0-.79.39c0,.79,0,1.18-.39,1.97,0,.39-.39.79-.79,1.18s-.79.39-1.57.39h-.39c-.39,0-1.18,0-1.57.39-.39,0-.79.39-1.18.39,0-.79-.39-1.57-1.18-1.97-.79-.79-1.97-1.18-2.75-1.57-.39,0-.79,0-.79.39s0,.79.39.79c.79.39,1.97.79,2.36,1.57.39.39,1.18,1.57.79,2.36,0,.39-.39.79-.79,1.18l-.39.39c-1.18,1.57-1.57,3.54-1.18,5.11h-1.97c.39-.79.79-1.57.79-2.75-.39-1.57-1.57-2.75-3.15-3.15-3.54-1.18-7.47-.39-12.19,1.97-1.97,1.18-4.72,2.36-5.5,5.11,0,.39,0,.79.39.79.39.79.79.79.79.39Z"/>
    <path class="cls-3" d="m72.02,97.84c.39-.39.79-1.18.79-1.97l1.18-5.11c0-.39,0-.79-.39-.79s-.79,0-.79.39l-1.18,5.5c0,.39-.39,1.18-.39,1.18-.39.39-1.18.39-1.97.39-.39,0-.79-.39-.79-.39-.39-.39-1.18-.39-1.97-.79-.39,0-.79,0-.79.39s0,.79.39.79,1.18.39,1.57.39.79.39,1.18.39.79.39,1.18.39c.79,0,1.57,0,1.97-.79Z"/>
    <path class="cls-3" d="m66.12,102.16c-1.57,0-3.15,0-4.72-.39-1.57-.39-2.75-1.97-3.15-3.15v-.39h0c0-.39.39-.79.79-1.18.39,0,.39-.39.79-.39.79-.39.79-.79,1.18-.79.39-.39.79-.79,1.18-1.57,1.97-3.15,4.72-5.11,7.47-5.9h.79c.79-.39,1.97-.39,2.75-.79,1.57-.79,2.36-1.97,2.75-3.15v-3.54c0-1.57.39-2.75,1.18-3.93.79-.79,1.57-1.57,2.75-1.97h.79c.39,0,.39-.39.39-.79s-.39-.39-.79-.39h-.39c-.39,0-1.18-.39-1.57-1.18-.39-.79-.39-1.97-.39-3.15v-5.9c0-.39-.39-.79-.79-.79h0c-.39,0-.39.39-.39.79v5.9c0,1.18,0,2.36.39,3.54.39.39.39.79.79,1.18-.79.39-1.57,1.18-1.97,1.57s-.39.79-.39.79c-1.97-.79-3.15-2.36-3.93-4.32s-.39-4.32,0-6.29c0-.39,0-.79-.39-.79s-.79.39-.79.39c-.39,2.36-.39,4.72.39,7.08.79,1.97,2.36,3.93,4.32,5.11-.39.79-.39,1.57-.39,2.75v1.18c0,.79.39,1.57,0,1.97-.39,1.18-1.57,1.97-1.97,2.36-.79.39-1.57.39-2.36.79h-.79c-3.15.79-5.9,2.75-7.86,6.29-.39.39-.79.79-1.18,1.18q-.39.39-.79.39c-.39,0-.39.39-.79.39q-.39.39-.79.79c-.39-.79-1.57-1.18-2.36-1.18h0c-1.57-.39-2.75-1.18-3.93-2.36-.39-.39-.79-.39-.79,0-.39.39,0,.79,0,.79,1.18,1.18,2.75,1.97,4.72,2.36h0c.79,0,1.18.39,1.57.79v1.18c.39,2.36,2.36,3.54,3.93,4.32,1.18.39,2.36.39,3.93.39h1.57c.39,0,.39-.39.39-.79-.39,1.18-.79.79-1.18.79Z"/>
    <path class="cls-3" d="m56.29,85.65l-3.93,2.75c-.39.39-.79.39-1.18.79s-.79,1.18-.79,1.57.39.39.39.39h0c.39,0,.39-.39.39-.79s0-.39.39-.79.39-.39.79-.79l3.93-2.75c.39,0,.39-.39.39-.79.39.39,0,.39-.39.39Z"/>
    <path class="cls-3" d="m52.76,83.68c.39-1.18.79-1.97,1.57-2.36.39-.39,1.57-.79,2.36-.39.39,0,.39.39.79.79l.39.39c.79.79,1.18.79,1.97.79.39,0,1.18-.39,1.57-.79l.39-.39c0-.39.39-.39.39-.39.79-.79,1.97-.79,3.15-.39s1.97.79,3.15,1.57c.39,0,.79,0,.79-.39s0-.79-.39-.79c-1.18-.79-2.36-1.18-3.54-1.57-1.57-.39-3.15,0-3.93.79l-.79.79-.39.39c-.39.39-.79.39-.79.39-.39,0-.79,0-1.18-.39l-.39-.39c-.39-.39-.79-.79-1.18-.79-1.18-.39-2.36-.39-3.54.39-.79.79-1.57,1.97-1.97,2.75-.39.39-.39,1.18-.79,1.18-.39.39-1.18,0-1.57-.39,0-.39-.39-.39-.79-.39s-.39.39,0,.79c.39.79,1.18,1.18,1.97,1.18.39,0,.79,0,1.18-.39.79-.79,1.18-1.57,1.57-1.97Z"/>
    <path class="cls-3" d="m49.22,81.72q.39,0,.39-.39c.39-1.18,1.57-1.57,2.75-1.97l.39-.39c1.18-.39,1.97-.79,3.15-1.57l.39-.39.39-.39h.39c.39.39,2.36,1.18,3.54,0,.79-.39.79-1.18,1.18-1.97,0-.39.39-.79.39-1.18.39-.79,1.18-1.18,2.36-1.57.79-.39,1.97-.39,3.15-.39.39,0,.39-.39.39-.79s-.39-.79-.79-.79h0c-1.18,0-2.36,0-3.15.39-.79.39-1.97.79-3.15,1.97-.39,1.57-.39,1.97-.39,2.36-.39.39-.39,1.18-.79,1.57-.39.39-1.18.39-2.36-.39-.39-.39-1.18,0-1.57.39-.39,0-.39.39-.79.39l-.39.39c-.79.79-1.57,1.18-2.75,1.57l-.39.39c-1.18.39-2.36,1.18-3.15,2.75,0-.39,0,0,.79,0-.39,0,0,0,0,0Z"/>
    <path class="cls-3" d="m50.79,77h.39c.79,0,1.97-.39,3.15-1.57q.39-.39.79-.79c.39-.79,1.18-1.18,1.57-1.57.39,0,.39-.39.79-.39.79-.39,1.57-.79,1.97-1.57s.39-1.57.39-1.97v-.39c.39-1.97.79-3.54,1.97-4.72.39-.39,0-.79,0-.79-.39-.39-.79-.39-.79,0-1.18,1.57-1.97,3.54-2.36,5.5v.39c0,.39,0,1.18-.39,1.57-.39.39-.79.79-1.57.79-.39,0-.79.39-.79.39-.79.39-1.18,1.18-1.97,1.57q-.39.39-.79.79c-.79.79-1.57,1.18-2.36,1.18-.39,0-.79,0-.79.39.39.79.39,1.18.79,1.18Z"/>
    <path class="cls-3" d="m130.99,102.55h0c-.39-.39-.79-.79-.39-.79,1.18-3.15,1.97-5.9,1.97-8.65,0-3.15-.79-6.29-2.36-8.26-.39-.39,0-.79,0-.79.39-.39.79,0,.79,0,1.97,2.36,2.75,5.5,2.75,9.04,0,2.75-.79,5.9-1.97,9.04q-.39.39-.79.39Z"/>
  </g>
  <path class="cls-3" d="m96.4,13.7v9.83c0,2.36-1.97,4.32-4.32,4.32s-4.72-1.97-4.72-4.32v-9.83c.39-2.36,2.36-4.32,4.72-4.32s4.32,1.97,4.32,4.32Z"/>
  <path class="cls-1" d="m54.33,22.74l4.72,8.65c1.18,1.97.39,4.72-1.57,6.29-2.36,1.18-5.11.39-6.29-1.57l-4.72-8.65c-1.18-2.36-.39-5.11,1.57-6.29,2.36-1.18,5.11-.39,6.29,1.57Z"/>
  <path class="cls-3" d="m22.09,51.44l8.65,5.11c1.97,1.18,2.75,3.93,1.57,6.29s-3.93,2.75-6.29,1.57l-8.65-4.72c-1.97-1.18-2.75-3.93-1.57-6.29,1.57-2.36,4.32-3.15,6.29-1.97Z"/>
  <path class="cls-1" d="m8.72,92.72h9.83c2.36,0,4.32,1.97,4.32,4.32s-1.97,4.72-4.32,4.72h-9.83c-2.36,0-4.32-1.97-4.32-4.72,0-2.36,1.97-4.32,4.32-4.32Z"/>
  <path class="cls-3" d="m17.77,134.79l8.65-4.72c1.97-1.18,4.72-.39,6.29,1.57,1.18,2.36.39,5.11-1.57,6.29l-8.65,4.72c-2.36,1.18-5.11.39-6.29-1.57-1.57-2.36-.79-5.11,1.57-6.29Z"/>
  <path class="cls-3" d="m162.05,142.66l-8.65-4.72c-1.97-1.18-2.75-3.93-1.57-6.29s3.93-2.75,6.29-1.57l8.65,4.72c1.97,1.18,2.75,3.93,1.57,6.29-1.57,1.97-4.32,2.75-6.29,1.57Z"/>
  <path class="cls-1" d="m175.42,101.77h-9.83c-2.36,0-4.32-1.97-4.32-4.32s1.97-4.72,4.32-4.72h9.83c2.36,0,4.32,1.97,4.32,4.72,0,2.36-1.97,4.32-4.32,4.32Z"/>
  <path class="cls-3" d="m166.38,59.31l-8.26,5.11c-1.97,1.18-4.72.39-6.29-1.57-1.18-2.36-.39-5.11,1.57-6.29l8.65-4.72c1.97-1.18,4.72-.39,6.29,1.57,1.18,1.97.39,4.72-1.97,5.9Z"/>
  <path class="cls-1" d="m137.68,27.46l-4.72,8.65c-1.18,1.97-3.93,2.75-6.29,1.57-2.36-1.18-2.75-3.93-1.57-6.29l4.72-8.65c1.18-1.97,3.93-2.75,6.29-1.57,1.97,1.18,2.75,3.93,1.57,6.29Z"/>
  <path class="cls-4" d="m97.97,118.28s4.43-5.74,30.54-4.4"/>
  <path class="cls-4" d="m98.79,120.25s10.7-5.35,28.26-3.72"/>
  <path class="cls-4" d="m100.15,122.55s11.3-4.87,24.74-3.34"/>
  <path class="cls-4" d="m103.87,124.18s6.14-3.47,18.59-2.81"/>
</svg>